<svg xmlns="http://www.w3.org/2000/svg" xmlns:xlink="http://www.w3.org/1999/xlink" width="1043" zoomAndPan="magnify" viewBox="0 0 782.25 770.999999" height="1028" preserveAspectRatio="xMidYMid meet" version="1.2"><defs><clipPath id="826bfdf775"><path d="M 0 0.371094 L 781.5 0.371094 L 781.5 770.628906 L 0 770.628906 Z M 0 0.371094 "/></clipPath><clipPath id="bab0c23e5b"><path d="M 220.710938 78.550781 L 682.269531 78.550781 L 682.269531 692.960938 L 220.710938 692.960938 Z M 220.710938 78.550781 "/></clipPath><clipPath id="31bf9c7555"><rect x="0" width="461" y="0" height="448"/></clipPath></defs><g id="746ae04bf3"><g clip-rule="nonzero" clip-path="url(#826bfdf775)"><path style=" stroke:none;fill-rule:nonzero;fill:#ffffff;fill-opacity:1;" d="M 0 0.371094 L 781.5 0.371094 L 781.5 770.628906 L 0 770.628906 Z M 0 0.371094 "/></g><path style=" stroke:none;fill-rule:nonzero;fill:#786452;fill-opacity:1;" d="M 369.769531 307.335938 C 333.398438 339.40625 328.5625 394.101562 357.691406 431.996094 L 415.113281 381.371094 L 437.535156 361.59375 L 494.957031 310.976562 C 461.015625 277.316406 406.140625 275.261719 369.769531 307.335938 Z M 369.769531 307.335938 "/><g clip-rule="nonzero" clip-path="url(#bab0c23e5b)"><path style=" stroke:none;fill-rule:nonzero;fill:#786452;fill-opacity:1;" d="M 566.257812 248.113281 L 682.09375 349.105469 L 660.636719 186.445312 L 588.015625 186.445312 C 584.777344 126.40625 534.921875 78.550781 474.089844 78.550781 C 413.253906 78.550781 363.398438 126.40625 360.160156 186.445312 L 287.535156 186.445312 L 220.710938 693.042969 L 419.511719 693.042969 L 286.398438 494.859375 L 340.871094 446.828125 C 303.597656 399.65625 309.34375 330.789062 354.972656 290.554688 C 400.605469 250.324219 469.648438 253.25 511.78125 296.140625 L 511.824219 296.109375 L 571.117188 354.625 L 578.1875 349.320312 L 518.777344 289.96875 Z M 489.035156 186.445312 L 382.585938 186.445312 C 385.796875 138.75 425.589844 100.921875 474.082031 100.921875 C 522.570312 100.921875 562.371094 138.75 565.578125 186.445312 Z M 489.035156 186.445312 "/></g><path style=" stroke:none;fill-rule:nonzero;fill:#786452;fill-opacity:1;" d="M 424.34375 485.480469 L 364.664062 425.851562 L 357.699219 431.996094 L 417.277344 490.785156 Z M 424.34375 485.480469 "/><g transform="matrix(1,0,0,1,160,161)"><g clip-path="url(#31bf9c7555)"><g style="fill:#443730;fill-opacity:1;"><g transform="translate(84.583297, 192.8124)"><path style="stroke:none" d="M 147.125 82.859375 C 153.25 89.710938 160.226562 95.4375 168.0625 100.03125 C 175.894531 104.632812 182.125 107.59375 186.75 108.90625 L 193.90625 110.65625 L 172.78125 163.921875 C 171.71875 163.722656 170.289062 163.421875 168.5 163.015625 C 166.71875 162.609375 162.9375 161.335938 157.15625 159.203125 C 151.375 157.066406 145.625 154.398438 139.90625 151.203125 C 134.195312 148.003906 127.359375 143.234375 119.390625 136.890625 C 111.421875 130.554688 103.875 123.40625 96.75 115.4375 C 80.382812 97.132812 69.367188 75.757812 63.703125 51.3125 C 58.046875 26.875 58.613281 2.597656 65.40625 -21.515625 C 72.207031 -45.628906 84.765625 -65.875 103.078125 -82.25 C 116.929688 -94.632812 132.859375 -103.570312 150.859375 -109.0625 C 168.859375 -114.5625 186.769531 -116.472656 204.59375 -114.796875 C 222.414062 -113.128906 239.867188 -108.1875 256.953125 -99.96875 C 274.035156 -91.75 288.695312 -80.796875 300.9375 -67.109375 C 312.320312 -54.367188 321.304688 -41.273438 327.890625 -27.828125 C 334.472656 -14.378906 338.242188 -4.070312 339.203125 3.09375 L 340.65625 13.84375 L 285.375 28.890625 C 285.320312 26.929688 284.976562 24.234375 284.34375 20.796875 C 283.707031 17.359375 281.515625 11.296875 277.765625 2.609375 C 274.015625 -6.066406 269.078125 -13.832031 262.953125 -20.6875 C 253.273438 -31.507812 242.84375 -39.648438 231.65625 -45.109375 C 220.46875 -50.578125 209.765625 -53.253906 199.546875 -53.140625 C 189.328125 -53.035156 179.738281 -51.335938 170.78125 -48.046875 C 161.832031 -44.765625 153.9375 -40.066406 147.09375 -33.953125 C 132.132812 -20.578125 123.738281 -2.976562 121.90625 18.84375 C 120.070312 40.664062 128.476562 62.003906 147.125 82.859375 Z M 147.125 82.859375 "/></g></g></g></g></g></svg>