<svg xmlns="http://www.w3.org/2000/svg" xmlns:xlink="http://www.w3.org/1999/xlink" width="3250" zoomAndPan="magnify" viewBox="0 0 2437.5 873.749996" height="1165" preserveAspectRatio="xMidYMid meet" version="1.2"><defs><clipPath id="a4ceebec82"><path d="M 0.0976562 0 L 2436.902344 0 L 2436.902344 873.5 L 0.0976562 873.5 Z M 0.0976562 0 "/></clipPath><clipPath id="6d9a945ae0"><path d="M 220.960938 78.230469 L 682.828125 78.230469 L 682.828125 693.054688 L 220.960938 693.054688 Z M 220.960938 78.230469 "/></clipPath><clipPath id="e53a4dea63"><rect x="0" width="462" y="0" height="448"/></clipPath><clipPath id="390fb5a499"><rect x="0" width="1514" y="0" height="555"/></clipPath></defs><g id="5053bcf4f6"><g clip-rule="nonzero" clip-path="url(#a4ceebec82)"><path style=" stroke:none;fill-rule:nonzero;fill:#ffffff;fill-opacity:1;" d="M 0.0976562 0 L 2436.902344 0 L 2436.902344 873.5 L 0.0976562 873.5 Z M 0.0976562 0 "/></g><path style=" stroke:none;fill-rule:nonzero;fill:#786452;fill-opacity:1;" d="M 370.117188 307.171875 C 333.722656 339.265625 328.878906 393.996094 358.03125 431.914062 L 415.492188 381.257812 L 437.929688 361.46875 L 495.386719 310.816406 C 461.425781 277.132812 406.511719 275.078125 370.117188 307.171875 Z M 370.117188 307.171875 "/><g clip-rule="nonzero" clip-path="url(#6d9a945ae0)"><path style=" stroke:none;fill-rule:nonzero;fill:#786452;fill-opacity:1;" d="M 566.738281 247.910156 L 682.652344 348.96875 L 661.179688 186.199219 L 588.507812 186.199219 C 585.269531 126.125 535.382812 78.230469 474.507812 78.230469 C 413.628906 78.230469 363.742188 126.125 360.503906 186.199219 L 287.824219 186.199219 L 220.960938 693.136719 L 419.890625 693.136719 L 286.6875 494.820312 L 341.199219 446.761719 C 303.898438 399.554688 309.648438 330.640625 355.3125 290.378906 C 400.972656 250.125 470.0625 253.050781 512.226562 295.96875 L 512.265625 295.941406 L 571.601562 354.492188 L 578.675781 349.183594 L 519.226562 289.796875 Z M 489.464844 186.199219 L 382.941406 186.199219 C 386.152344 138.472656 425.972656 100.621094 474.5 100.621094 C 523.023438 100.621094 562.847656 138.472656 566.054688 186.199219 Z M 489.464844 186.199219 "/></g><path style=" stroke:none;fill-rule:nonzero;fill:#786452;fill-opacity:1;" d="M 424.730469 485.4375 L 365.007812 425.765625 L 358.039062 431.914062 L 417.65625 490.746094 Z M 424.730469 485.4375 "/><g transform="matrix(1,0,0,1,160,161)"><g clip-path="url(#e53a4dea63)"><g style="fill:#443730;fill-opacity:1;"><g transform="translate(84.846458, 192.680822)"><path style="stroke:none" d="M 147.21875 82.921875 C 153.351562 89.773438 160.335938 95.5 168.171875 100.09375 C 176.015625 104.6875 182.242188 107.644531 186.859375 108.96875 L 194.03125 110.734375 L 172.890625 164.03125 C 171.835938 163.820312 170.414062 163.515625 168.625 163.109375 C 166.832031 162.703125 163.039062 161.429688 157.25 159.296875 C 151.46875 157.160156 145.71875 154.492188 140 151.296875 C 134.28125 148.097656 127.429688 143.320312 119.453125 136.96875 C 111.484375 130.625 103.9375 123.472656 96.8125 115.515625 C 80.425781 97.191406 69.398438 75.800781 63.734375 51.34375 C 58.078125 26.894531 58.648438 2.601562 65.453125 -21.53125 C 72.253906 -45.664062 84.8125 -65.921875 103.125 -82.296875 C 116.988281 -94.691406 132.925781 -103.632812 150.9375 -109.125 C 168.945312 -114.625 186.867188 -116.535156 204.703125 -114.859375 C 222.546875 -113.191406 240.015625 -108.25 257.109375 -100.03125 C 274.203125 -91.8125 288.875 -80.847656 301.125 -67.140625 C 312.519531 -54.398438 321.507812 -41.296875 328.09375 -27.828125 C 334.6875 -14.367188 338.457031 -4.054688 339.40625 3.109375 L 340.875 13.84375 L 285.546875 28.921875 C 285.503906 26.941406 285.160156 24.234375 284.515625 20.796875 C 283.878906 17.359375 281.6875 11.296875 277.9375 2.609375 C 274.1875 -6.078125 269.242188 -13.847656 263.109375 -20.703125 C 253.429688 -31.523438 242.992188 -39.671875 231.796875 -45.140625 C 220.597656 -50.609375 209.890625 -53.289062 199.671875 -53.1875 C 189.453125 -53.082031 179.859375 -51.382812 170.890625 -48.09375 C 161.929688 -44.800781 154.03125 -40.097656 147.1875 -33.984375 C 132.21875 -20.597656 123.816406 -2.984375 121.984375 18.859375 C 120.148438 40.703125 128.5625 62.054688 147.21875 82.921875 Z M 147.21875 82.921875 "/></g></g></g></g><g transform="matrix(1,0,0,1,740,219)"><g clip-path="url(#390fb5a499)"><g style="fill:#443730;fill-opacity:1;"><g transform="translate(0.844216, 443.979541)"><path style="stroke:none" d="M 8.953125 -123.984375 C 8.953125 -140.960938 11.9375 -157.226562 17.90625 -172.78125 C 23.882812 -188.34375 32.609375 -202.015625 44.078125 -213.796875 C 55.546875 -225.578125 69.765625 -235.003906 86.734375 -242.078125 C 103.710938 -249.148438 123.203125 -252.6875 145.203125 -252.6875 C 175.367188 -252.6875 200.585938 -246.398438 220.859375 -233.828125 C 241.140625 -221.253906 256.304688 -205.070312 266.359375 -185.28125 L 179.140625 -158.875 C 170.660156 -171.132812 159.191406 -177.265625 144.734375 -177.265625 C 132.472656 -177.265625 122.097656 -172.628906 113.609375 -163.359375 C 105.128906 -154.085938 100.890625 -140.960938 100.890625 -123.984375 C 100.890625 -107.015625 105.128906 -93.894531 113.609375 -84.625 C 122.097656 -75.351562 132.472656 -70.71875 144.734375 -70.71875 C 159.191406 -70.71875 170.660156 -76.847656 179.140625 -89.109375 L 266.359375 -62.703125 C 256.304688 -42.898438 241.140625 -26.710938 220.859375 -14.140625 C 200.585938 -1.566406 175.367188 4.71875 145.203125 4.71875 C 123.203125 4.71875 103.710938 1.179688 86.734375 -5.890625 C 69.765625 -12.960938 55.546875 -22.390625 44.078125 -34.171875 C 32.609375 -45.960938 23.882812 -59.632812 17.90625 -75.1875 C 11.9375 -90.75 8.953125 -107.015625 8.953125 -123.984375 Z M 8.953125 -123.984375 "/></g></g><g style="fill:#786452;fill-opacity:1;"><g transform="translate(272.398342, 443.979541)"><path style="stroke:none" d="M 98.0625 4.71875 C 72.914062 4.71875 53.742188 -2.898438 40.546875 -18.140625 C 27.347656 -33.390625 20.75 -55.628906 20.75 -84.859375 L 20.75 -247.96875 L 110.3125 -247.96875 L 110.3125 -105.125 C 110.3125 -94.125 112.75 -85.640625 117.625 -79.671875 C 122.5 -73.703125 129.175781 -70.71875 137.65625 -70.71875 C 144.570312 -70.71875 151.644531 -72.285156 158.875 -75.421875 C 166.101562 -78.566406 173.332031 -85.484375 180.5625 -96.171875 L 180.5625 -247.96875 L 270.140625 -247.96875 L 270.140625 -99 C 270.140625 -90.507812 271.707031 -84.613281 274.84375 -81.3125 C 277.988281 -78.019531 283.644531 -76.0625 291.8125 -75.4375 L 291.8125 0 C 282.695312 1.570312 274.679688 2.75 267.765625 3.53125 C 260.859375 4.320312 254.734375 4.71875 249.390625 4.71875 C 218.898438 4.71875 201.300781 -6.753906 196.59375 -29.703125 L 194.703125 -38.65625 C 183.078125 -23.257812 169.25 -12.179688 153.21875 -5.421875 C 137.1875 1.335938 118.800781 4.71875 98.0625 4.71875 Z M 98.0625 4.71875 "/></g></g><g style="fill:#786452;fill-opacity:1;"><g transform="translate(576.942158, 443.979541)"><path style="stroke:none" d="M 21.21875 -344.15625 L 110.78125 -344.15625 L 110.78125 -104.65625 C 110.78125 -85.800781 118.484375 -76.375 133.890625 -76.375 C 137.660156 -76.375 141.742188 -77 146.140625 -78.25 C 150.546875 -79.507812 154.632812 -81.238281 158.40625 -83.4375 L 169.71875 -11.3125 C 159.03125 -6.28125 147.003906 -2.351562 133.640625 0.46875 C 120.285156 3.300781 107.640625 4.71875 95.703125 4.71875 C 71.816406 4.71875 53.429688 -1.410156 40.546875 -13.671875 C 27.660156 -25.929688 21.21875 -43.6875 21.21875 -66.9375 Z M 21.21875 -344.15625 "/></g></g><g style="fill:#786452;fill-opacity:1;"><g transform="translate(748.071291, 443.979541)"><path style="stroke:none" d="M 196.59375 -13.671875 C 184.019531 -8.328125 170.582031 -3.847656 156.28125 -0.234375 C 141.976562 3.378906 127.914062 5.1875 114.09375 5.1875 C 104.03125 5.1875 94.441406 3.925781 85.328125 1.40625 C 76.210938 -1.101562 68.273438 -5.1875 61.515625 -10.84375 C 54.765625 -16.5 49.421875 -23.882812 45.484375 -33 C 41.554688 -42.113281 39.59375 -53.425781 39.59375 -66.9375 L 39.59375 -180.5625 L 8.953125 -180.5625 L 8.953125 -247.96875 L 39.59375 -247.96875 L 39.59375 -325.765625 L 129.171875 -325.765625 L 129.171875 -247.96875 L 177.734375 -247.96875 L 177.734375 -180.5625 L 129.171875 -180.5625 L 129.171875 -98.53125 C 129.171875 -90.351562 130.898438 -84.613281 134.359375 -81.3125 C 137.816406 -78.019531 142.53125 -76.375 148.5 -76.375 C 152.90625 -76.375 157.9375 -77.078125 163.59375 -78.484375 C 169.25 -79.898438 174.90625 -81.867188 180.5625 -84.390625 Z M 196.59375 -13.671875 "/></g></g><g style="fill:#786452;fill-opacity:1;"><g transform="translate(947.957633, 443.979541)"><path style="stroke:none" d="M 190.9375 -171.609375 C 173.644531 -171.609375 157.925781 -169.71875 143.78125 -165.9375 C 129.644531 -162.164062 119.117188 -155.882812 112.203125 -147.09375 L 112.203125 0 L 22.625 0 L 22.625 -247.96875 L 104.65625 -247.96875 L 104.65625 -200.828125 C 113.457031 -217.484375 124.378906 -230.289062 137.421875 -239.25 C 150.460938 -248.207031 164.53125 -252.6875 179.625 -252.6875 C 185.59375 -252.6875 189.363281 -252.53125 190.9375 -252.21875 Z M 190.9375 -171.609375 "/></g></g><g style="fill:#786452;fill-opacity:1;"><g transform="translate(1144.543923, 443.979541)"><path style="stroke:none" d="M 132.953125 4.71875 C 122.578125 4.71875 111.414062 3.929688 99.46875 2.359375 C 87.53125 0.785156 75.820312 -1.253906 64.34375 -3.765625 C 52.875 -6.285156 41.796875 -9.351562 31.109375 -12.96875 C 20.429688 -16.582031 11.160156 -20.585938 3.296875 -24.984375 L 37.71875 -85.796875 C 55 -76.679688 71.492188 -69.765625 87.203125 -65.046875 C 102.921875 -60.335938 117.539062 -57.984375 131.0625 -57.984375 C 146.769531 -57.984375 154.625 -61.910156 154.625 -69.765625 C 154.625 -73.859375 151.484375 -77.472656 145.203125 -80.609375 C 138.921875 -83.753906 126.976562 -87.53125 109.375 -91.9375 C 91.769531 -96.644531 76.992188 -101.351562 65.046875 -106.0625 C 53.109375 -110.78125 43.523438 -116.046875 36.296875 -121.859375 C 29.066406 -127.679688 23.878906 -134.125 20.734375 -141.1875 C 17.597656 -148.257812 16.03125 -156.515625 16.03125 -165.953125 C 16.03125 -178.515625 18.625 -190.140625 23.8125 -200.828125 C 29 -211.515625 36.304688 -220.785156 45.734375 -228.640625 C 55.160156 -236.503906 66.394531 -242.554688 79.4375 -246.796875 C 92.476562 -251.035156 106.703125 -253.15625 122.109375 -253.15625 C 138.765625 -253.15625 156.597656 -250.796875 175.609375 -246.078125 C 194.617188 -241.367188 214.023438 -234.457031 233.828125 -225.34375 L 199.421875 -168.296875 C 181.816406 -176.472656 167.195312 -182.367188 155.5625 -185.984375 C 143.9375 -189.597656 132.785156 -191.40625 122.109375 -191.40625 C 115.191406 -191.40625 109.609375 -190.382812 105.359375 -188.34375 C 101.117188 -186.300781 99 -183.078125 99 -178.671875 C 99 -176.160156 99.625 -174.039062 100.875 -172.3125 C 102.132812 -170.582031 104.335938 -168.929688 107.484375 -167.359375 C 110.628906 -165.785156 114.953125 -164.132812 120.453125 -162.40625 C 125.953125 -160.675781 132.785156 -158.867188 140.953125 -156.984375 C 159.816406 -152.273438 175.691406 -147.328125 188.578125 -142.140625 C 201.460938 -136.953125 211.753906 -131.289062 219.453125 -125.15625 C 227.148438 -119.03125 232.648438 -112.117188 235.953125 -104.421875 C 239.253906 -96.722656 240.90625 -87.84375 240.90625 -77.78125 C 240.90625 -52.320312 231.238281 -32.207031 211.90625 -17.4375 C 192.582031 -2.664062 166.265625 4.71875 132.953125 4.71875 Z M 132.953125 4.71875 "/></g></g><g style="fill:#786452;fill-opacity:1;"><g transform="translate(1392.987481, 443.979541)"><path style="stroke:none" d="M 23.578125 0 L 23.578125 -86.75 L 96.171875 -86.75 L 96.171875 0 Z M 23.578125 0 "/></g></g></g></g></g></svg>